# xmcd
#
# Track frame offsets:
#	150
#	23022
#	47742
#	65215
#	81696
#	97645
#	119209
#	140000
#	155746
#	172694
#	190101
#	210904
#	228344
#	269087
#
# Disc length: 3829 seconds
# Revision: 2
# Processed by: cddbd v1.5.2PL0 Copyright (c) Steve Scherf et al.
# Submitted via: dBpowerAMP V12.0
#
DISCID=c70ef30e
DTITLE=Various Artist - ...Left
DYEAR=2007
DGENRE=R&B
TTITLE0=Eric Roberson - Music
TTITLE1=Eric Roberson - Evening
TTITLE2=Eric Roberson feat. Phonte - Been in Love...
TTITLE3=Eric Roberson - Pen Just Cries Away
TTITLE4=Eric Roberson feat. Algebra Blessett - Iluvu2much
TTITLE5=Eric Roberson - Only for You
TTITLE6=Eric Roberson - Pretty Girl
TTITLE7=Eric Roberson - Too Soon
TTITLE8=Eric Roberson - If I Had a Chance
TTITLE9=Eric Roberson - Open Your Eyes
TTITLE10=Eric Roberson - Right or Wrong
TTITLE11=Eric Roberson - The Baby Song
TTITLE12=Eric Roberson feat. Curtis Chambers - Couldn't Hear Her
TTITLE13=Eric Roberson and Smoke Signals - Man Who Had It All
EXTD=
EXTT0=
EXTT1=
EXTT2=
EXTT3=
EXTT4=
EXTT5=
EXTT6=
EXTT7=
EXTT8=
EXTT9=
EXTT10=
EXTT11=
EXTT12=
EXTT13=
PLAYORDER=
